<svg xmlns="http://www.w3.org/2000/svg" width="1200" height="750" viewBox="0 0 1200 750">
  <defs>
    <linearGradient id="g3" x1="0" y1="0" x2="1" y2="1">
      <stop offset="0" stop-color="#04140f"/><stop offset="0.55" stop-color="#0f5c46"/><stop offset="1" stop-color="#04140f"/>
    </linearGradient>
    <radialGradient id="r3" cx="0.75" cy="0.18" r="0.8">
      <stop offset="0" stop-color="#20d39a" stop-opacity="0.5"/><stop offset="1" stop-color="#20d39a" stop-opacity="0"/>
    </radialGradient>
  </defs>
  <rect width="1200" height="750" fill="url(#g3)"/>
  <rect width="1200" height="750" fill="url(#r3)"/>
  <rect x="40" y="40" width="1120" height="670" rx="26" fill="#000" opacity="0.28"/>
  <rect x="40" y="40" width="1120" height="72" rx="26" fill="#fff" opacity="0.06"/>
  <circle cx="78" cy="76" r="8" fill="#20d39a"/><circle cx="104" cy="76" r="8" fill="#fff" opacity="0.25"/><circle cx="130" cy="76" r="8" fill="#fff" opacity="0.18"/>
  <rect x="40" y="112" width="220" height="598" fill="#000" opacity="0.25"/>
  <rect x="60" y="170" width="159.2" height="12" rx="6" fill="#fff" opacity="0.188"/><rect x="60" y="214" width="178.4" height="12" rx="6" fill="#fff" opacity="0.214"/><rect x="60" y="258" width="176.7" height="12" rx="6" fill="#fff" opacity="0.203"/><rect x="60" y="302" width="157.3" height="12" rx="6" fill="#fff" opacity="0.298"/><rect x="60" y="346" width="140.7" height="12" rx="6" fill="#fff" opacity="0.174"/><rect x="60" y="390" width="124.5" height="12" rx="6" fill="#fff" opacity="0.285"/><rect x="60" y="434" width="130.8" height="12" rx="6" fill="#fff" opacity="0.170"/><rect x="300" y="190" width="255" height="205" rx="18" fill="#ffffff" opacity="0.084"/><rect x="322" y="216" width="76.3" height="10" rx="5" fill="#a7ffe4" opacity="0.55"/><rect x="322" y="242" width="145.2" height="26" rx="6" fill="#20d39a" opacity="0.85"/><polyline points="322,303.8 343,286.3 364,308.9 385,284.6 406,334.7 427,316.3 448,300.4 469,286.9 490,284.6 511,332.5 532,276.7" fill="none" stroke="#20d39a" stroke-width="3" opacity="0.75" stroke-linecap="round" stroke-linejoin="round"/><rect x="590" y="190" width="255" height="205" rx="18" fill="#ffffff" opacity="0.087"/><rect x="612" y="216" width="107.8" height="10" rx="5" fill="#a7ffe4" opacity="0.55"/><rect x="612" y="242" width="151.2" height="26" rx="6" fill="#20d39a" opacity="0.85"/><polyline points="612,317.8 633,332.6 654,345.4 675,280.5 696,308.1 717,301.5 738,339.6 759,320.8 780,325.6 801,313.6 822,305.3" fill="none" stroke="#20d39a" stroke-width="3" opacity="0.75" stroke-linecap="round" stroke-linejoin="round"/><rect x="880" y="190" width="255" height="205" rx="18" fill="#ffffff" opacity="0.100"/><rect x="902" y="216" width="130.7" height="10" rx="5" fill="#a7ffe4" opacity="0.55"/><rect x="902" y="242" width="162.2" height="26" rx="6" fill="#20d39a" opacity="0.85"/><polyline points="902,272.3 923,295.1 944,272.4 965,298.8 986,309.3 1007,298.5 1028,299.0 1049,287.3 1070,325.1 1091,275.6 1112,284.0" fill="none" stroke="#20d39a" stroke-width="3" opacity="0.75" stroke-linecap="round" stroke-linejoin="round"/><rect x="300" y="440" width="255" height="205" rx="18" fill="#ffffff" opacity="0.092"/><rect x="322" y="466" width="91.8" height="10" rx="5" fill="#a7ffe4" opacity="0.55"/><rect x="322" y="492" width="177.5" height="26" rx="6" fill="#20d39a" opacity="0.85"/><polyline points="322,591.1 343,591.0 364,592.0 385,577.2 406,578.7 427,538.1 448,565.3 469,591.7 490,543.6 511,560.5 532,532.8" fill="none" stroke="#20d39a" stroke-width="3" opacity="0.75" stroke-linecap="round" stroke-linejoin="round"/><rect x="590" y="440" width="255" height="205" rx="18" fill="#ffffff" opacity="0.068"/><rect x="612" y="466" width="97.4" height="10" rx="5" fill="#a7ffe4" opacity="0.55"/><rect x="612" y="492" width="186.1" height="26" rx="6" fill="#20d39a" opacity="0.85"/><polyline points="612,583.6 633,539.6 654,585.0 675,559.1 696,577.8 717,539.6 738,560.5 759,542.7 780,538.2 801,586.5 822,553.5" fill="none" stroke="#20d39a" stroke-width="3" opacity="0.75" stroke-linecap="round" stroke-linejoin="round"/><rect x="880" y="440" width="255" height="205" rx="18" fill="#ffffff" opacity="0.071"/><rect x="902" y="466" width="132.3" height="10" rx="5" fill="#a7ffe4" opacity="0.55"/><rect x="902" y="492" width="124.1" height="26" rx="6" fill="#20d39a" opacity="0.85"/><polyline points="902,583.4 923,541.7 944,581.2 965,576.4 986,599.5 1007,571.2 1028,575.4 1049,578.3 1070,594.9 1091,555.8 1112,534.9" fill="none" stroke="#20d39a" stroke-width="3" opacity="0.75" stroke-linecap="round" stroke-linejoin="round"/>
</svg>